:FULLY-SPECIFIED
:FORCE-ALL-JOINTS-BE-3DOF
:DEGREES
476
root 3.65321 16.322 -7.1519 5.08875 60.0263 -6.28928
lfemur -39.2033 -2.12229 -22.1088
ltibia 49.2743 -0 0
lfoot -20.2563 0.56795 -0.000237738
ltoes 16.7499 -0 0
rfemur -22.0985 2.31137 9.44395
rtibia 71.071 -0 0
rfoot 25.4243 14.9653 -0.0873059
rtoes -27.0971 0 0
lowerback 2.12424 -0.0138349 1.37182
upperback -0.383268 0.0427451 1.21178
thorax -1.58294 0.0165979 0.471611
lowerneck -8.46504 -6.8942 0.456108
upperneck 3.53063 -9.33105 1.46004
head 2.6369 -4.58107 -0.0651545
lclavicle 0 0 0
lhumerus -48.8135 -27.2557 108.178
lradius 56.0826 -0 0
lwrist 5.02169 0 0
lhand -9.22619 -6.04618 0.0275984
lfingers 0 -0 0
lthumb 16.7276 23.2375 0.0231437
rclavicle 0 0 0
rhumerus -54.9338 2.50353 -83.8453
rradius 62.536 -0 0
rwrist 15.0026 0 0
rhand -29.0725 -26.4712 0.00626064
rfingers 0 -0 0
rthumb -2.42169 -56.4366 0.00601421
477
root 3.7284 16.341 -7.10752 5.36091 61.1355 -5.63991
lfemur -38.3036 -3.32641 -22.4422
ltibia 48.7943 0 0
lfoot -20.3052 0.66072 0
ltoes 16.8988 0 0
rfemur -24.0532 2.3438 9.13449
rtibia 73.482 0 0
rfoot 24.3727 16.5457 0
rtoes -25.5466 0 0
lowerback 2.28222 -0.026124 1.04304
upperback -0.333723 0.0168387 1.11333
thorax -1.62127 0.00565704 0.555395
lowerneck -8.43167 -7.03543 0.323417
upperneck 3.57953 -9.51322 1.57741
head 2.66017 -4.66884 -0.0154352
lclavicle 2.13383e-14 -2.40529e-14 0
lhumerus -48.931 -27.5431 108.407
lradius 56.3398 0 0
lwrist 5.15338 0 0
lhand -8.22792 -5.51879 0
lfingers 7.12502 0 0
lthumb 17.6895 23.6965 0
rclavicle 2.13383e-14 -2.40529e-14 0
rhumerus -54.6057 3.09377 -84.35
rradius 62.5467 0 0
rwrist 15.5381 0 0
rhand -28.8569 -25.9167 0
rfingers 7.12502 0 0
rthumb -2.2135 -775.885 0
478
root 3.79946 16.3557 -7.0576 5.50761 62.3094 -5.29296
lfemur -37.6311 -4.13131 -22.5796
ltibia 48.392 -0 0
lfoot -20.4292 0.253416 0.00264518
ltoes 17.1334 -0 0
rfemur -26.2212 1.93532 9.24877
rtibia 74.8715 -0 0
rfoot 23.5565 14.8979 0.070637
rtoes -24.3711 0 0
lowerback 2.35711 -0.0793787 0.912749
upperback -0.327145 -0.0587506 1.0275
thorax -1.65586 -0.0314117 0.543824
lowerneck -8.44394 -7.14545 0.223924
upperneck 3.7429 -9.65589 1.61909
head 2.72759 -4.73777 0.0012321
lclavicle 0 0 0
lhumerus -48.9706 -27.8515 108.713
lradius 56.3349 -0 0
lwrist 5.12293 0 0
lhand -7.12504 -4.93439 0.0337952
lfingers 0 -0 0
lthumb 18.7488 24.1602 0.025751
rclavicle 0 0 0
rhumerus -54.0348 3.86539 -85.1253
rradius 62.9236 -0 0
rwrist 16.1962 0 0
rhand -28.1462 -25.6811 0.00877095
rfingers 0 -0 0
rthumb -1.52709 -55.6488 0.00849319
479
root 3.87051 16.3703 -7.00768 5.67621 63.4828 -4.92512
lfemur -36.9558 -4.93454 -22.7267
ltibia 47.9896 -0 0
lfoot -20.5532 -0.153892 0.00440872
ltoes 17.368 -0 0
rfemur -28.3895 1.53144 9.3784
rtibia 76.2611 -0 0
rfoot 22.7387 13.2492 0.117769
rtoes -23.1957 0 0
lowerback 2.43211 -0.132463 0.782389
upperback -0.320453 -0.13433 0.94166
thorax -1.69044 -0.0684874 0.532275
lowerneck -8.45602 -7.25549 0.124431
upperneck 3.90623 -9.79867 1.66038
head 2.795 -4.80673 0.0178196
lclavicle 0 0 0
lhumerus -49.0122 -28.1597 109.019
lradius 56.33 -0 0
lwrist 5.09248 0 0
lhand -6.02187 -4.34946 0.0563342
lfingers 0 -0 0
lthumb 19.8083 24.6243 0.0429241
rclavicle 0 0 0
rhumerus -53.4739 4.64461 -85.8936
rradius 63.3005 -0 0
rwrist 16.8542 0 0
rhand -27.4355 -25.4454 0.0146191
rfingers 0 -0 0
rthumb -0.840658 -55.4125 0.0141561
480
root 3.94157 16.385 -6.95776 5.86966 64.6557 -4.53338
lfemur -36.2777 -5.73598 -22.8835
ltibia 47.5873 -0 0
lfoot -20.6773 -0.561204 0.00529051
ltoes 17.6026 -0 0
rfemur -30.5584 1.13276 9.52319
rtibia 77.6506 -0 0
rfoot 21.9198 11.6 0.141347
rtoes -22.0202 0 0
lowerback 2.50724 -0.185376 0.651959
upperback -0.313649 -0.209899 0.855811
thorax -1.72501 -0.10557 0.520748
lowerneck -8.46791 -7.36556 0.0249369
upperneck 4.06953 -9.94157 1.70127
head 2.8624 -4.8757 0.0343275
lclavicle 0 0 0
lhumerus -49.0558 -28.4677 109.327
lradius 56.3251 -0 0
lwrist 5.06203 0 0
lhand -4.91852 -3.76419 0.0676064
lfingers 0 -0 0
lthumb 20.8679 25.0886 0.0515125
rclavicle 0 0 0
rhumerus -52.9229 5.43124 -86.6551
rradius 63.6774 -0 0
rwrist 17.5123 0 0
rhand -26.7247 -25.2097 0.0175434
rfingers 0 -0 0
rthumb -0.154205 -55.1762 0.0169877
481
root 4.01262 16.3997 -6.90785 6.09147 65.8279 -4.1142
lfemur -35.5963 -6.53551 -23.05
ltibia 47.1849 -0 0
lfoot -20.8013 -0.968516 0.00529051
ltoes 17.8371 -0 0
rfemur -32.728 0.73985 9.68296
rtibia 79.0402 -0 0
rfoot 21.1006 9.9507 0.141347
rtoes -20.8448 0 0
lowerback 2.58249 -0.238118 0.521459
upperback -0.306731 -0.285458 0.769953
thorax -1.75958 -0.14266 0.509244
lowerneck -8.47961 -7.47564 -0.0745592
upperneck 4.23279 -10.0846 1.74177
head 2.92978 -4.9447 0.0507555
lclavicle 0 0 0
lhumerus -49.1014 -28.7754 109.636
lradius 56.3203 -0 0
lwrist 5.03158 0 0
lhand -3.81512 -3.17882 0.0676064
lfingers 0 -0 0
lthumb 21.9275 25.5531 0.0515125
rclavicle 0 0 0
rhumerus -52.3817 6.22505 -87.4101
rradius 64.0543 -0 0
rwrist 18.1703 0 0
rhand -26.014 -24.974 0.0175434
rfingers 0 -0 0
rthumb 0.532255 -54.9398 0.0169877
482
root 4.08368 16.4144 -6.85793 6.34585 66.9994 -3.66331
lfemur -34.9114 -7.33301 -23.2264
ltibia 46.7826 -0 0
lfoot -20.9254 -1.37583 0.00440872
ltoes 18.0717 -0 0
rfemur -34.8986 0.353267 9.85748
rtibia 80.4297 -0 0
rfoot 20.2817 8.30153 0.117769
rtoes -19.6693 0 0
lowerback 2.65785 -0.290689 0.39089
upperback -0.299699 -0.361007 0.684085
thorax -1.79414 -0.179756 0.497762
lowerneck -8.49112 -7.58574 -0.174058
upperneck 4.39603 -10.2277 1.78187
head 2.99716 -5.01371 0.0671039
lclavicle 0 0 0
lhumerus -49.149 -29.083 109.947
lradius 56.3154 -0 0
lwrist 5.00113 0 0
lhand -2.71178 -2.59355 0.0563342
lfingers 0 -0 0
lthumb 22.9871 26.0174 0.0429241
rclavicle 0 0 0
rhumerus -51.8501 7.02587 -88.1587
rradius 64.4312 -0 0
rwrist 18.8284 0 0
rhand -25.3032 -24.7383 0.0146191
rfingers 0 -0 0
rthumb 1.21871 -54.7035 0.0141561
483
root 4.15473 16.429 -6.80801 6.63795 68.1701 -3.17551
lfemur -34.2227 -8.12836 -23.4127
ltibia 46.3802 -0 0
lfoot -21.0494 -1.78314 0.00264518
ltoes 18.3063 -0 0
rfemur -37.0703 -0.0264283 10.0465
rtibia 81.8193 -0 0
rfoot 19.4639 6.65286 0.070637
rtoes -18.4939 0 0
lowerback 2.73334 -0.343088 0.260251
upperback -0.292555 -0.436545 0.598206
thorax -1.82869 -0.21686 0.486302
lowerneck -8.50244 -7.69587 -0.27356
upperneck 4.55924 -10.371 1.82157
head 3.06451 -5.08274 0.0833724
lclavicle 0 0 0
lhumerus -49.1987 -29.3903 110.258
lradius 56.3105 -0 0
lwrist 4.97068 0 0
lhand -1.60861 -2.00862 0.0337952
lfingers 0 -0 0
lthumb 24.0466 26.4815 0.025751
rclavicle 0 0 0
rhumerus -51.3282 7.83348 -88.9011
rradius 64.8081 -0 0
rwrist 19.4864 0 0
rhand -24.5925 -24.5026 0.00877095
rfingers 0 -0 0
rthumb 1.90514 -54.4672 0.00849319
484
root 4.22579 16.4437 -6.75809 6.97404 69.3397 -2.6445
lfemur -33.53 -8.92142 -23.6091
ltibia 45.9779 0 0
lfoot -21.1734 -2.19044 0
ltoes 18.5409 0 0
rfemur -39.2433 -0.398685 10.2498
rtibia 83.2088 0 0
rfoot 18.6477 5.00504 0
rtoes -17.3184 0 0
lowerback 2.80895 -0.395314 0.129542
upperback -0.285297 -0.512072 0.512318
thorax -1.86323 -0.25397 0.474865
lowerneck -8.51357 -7.80601 -0.373066
upperneck 4.72242 -10.5143 1.86088
head 3.13186 -5.15179 0.0995613
lclavicle 7.92033e-16 -5.54112e-15 0
lhumerus -49.2505 -29.6974 110.571
lradius 56.3056 0 0
lwrist 4.94023 0 0
lhand -0.505724 -1.42422 0
lfingers 7.12502 0 0
lthumb 25.1059 26.9452 0
rclavicle 7.92033e-16 -5.54112e-15 0
rhumerus -50.8159 8.64771 -89.6376
rradius 65.185 0 0
rwrist 20.1445 0 0
rhand -23.8818 -24.267 0
rfingers 7.12502 0 0
rthumb 2.59155 -774.231 0
